<svg width="20" height="20" viewBox="0 0 20 20" fill="none" xmlns="http://www.w3.org/2000/svg">
<path d="M2.42442 10.9765C2.13978 10.3573 2.13978 9.64288 2.42442 9.02362C3.742 6.1571 6.63866 4.16675 10.0002 4.16675C13.3617 4.16675 16.2584 6.15711 17.576 9.02362C17.8606 9.64288 17.8606 10.3573 17.576 10.9766C16.2584 13.8431 13.3617 15.8334 10.0002 15.8334C6.63866 15.8334 3.74201 13.8431 2.42442 10.9765Z" stroke="#5F6D7E" stroke-width="1.5"/>
<path d="M12.5002 10.0001C12.5002 11.3808 11.3809 12.5001 10.0002 12.5001C8.61948 12.5001 7.50019 11.3808 7.50019 10.0001C7.50019 8.61937 8.61948 7.50008 10.0002 7.50008C11.3809 7.50008 12.5002 8.61937 12.5002 10.0001Z" stroke="#5F6D7E" stroke-width="1.5"/>
</svg>
